<?xml version="1.0" encoding="UTF-8" standalone="no"?>
<svg
   version="1.1"
   viewBox="0 0 800 800"
   fill="context-fill"
   width="800"
   height="800"
   id="svg1"
   xmlns="http://www.w3.org/2000/svg"
   xmlns:svg="http://www.w3.org/2000/svg">
  <defs
     id="defs1" />
  <path
     d="M 714.04355,33.594262 C 707.86998,27.420689 700.2265,24.186913 691.7011,24.186913 H 120.79267 c -8.52541,0 -16.16888,3.233776 -22.342461,9.407349 -6.173563,6.173571 -9.407343,13.817042 -9.407343,22.34245 V 436.64032 c 0,28.51603 5.58561,56.4441 16.462854,84.37215 11.17122,27.92808 24.69429,52.62237 41.15715,74.37686 16.46285,21.75449 35.86551,42.62705 58.50194,63.20561 22.63642,20.57859 43.50898,37.6294 62.61766,51.15247 19.10867,13.52305 39.0993,26.45817 59.97184,38.51132 20.87256,12.05317 35.57154,20.28461 44.39093,24.40032 8.81939,4.40968 15.8749,7.64346 21.16653,9.99529 3.82174,2.05788 8.23144,2.93981 12.9351,2.93981 4.70368,0 8.81939,-0.88193 12.9351,-2.93981 5.29164,-2.35183 12.34715,-5.58561 21.16654,-9.99529 8.81939,-4.40971 23.51837,-12.34715 44.39093,-24.40032 20.87256,-12.05315 40.86317,-24.98827 59.97183,-38.51132 19.10868,-13.52307 39.98124,-30.57388 62.61766,-51.15247 22.63644,-20.57856 42.0391,-41.45112 58.50196,-63.20561 16.46285,-21.75449 29.98592,-46.44878 41.15714,-74.37686 11.17122,-27.92805 16.46286,-56.1501 16.46286,-84.37215 V 55.936712 c 0,-8.525408 -3.23378,-15.874898 -9.40734,-22.34245 z M 640.54864,440.16808 c 0,137.87645 -234.00779,256.35023 -234.00779,256.35023 V 105.61927 h 234.00779 z"
     id="path1"
     style="stroke-width:2.10073" />
</svg>
