<?xml version="1.0" encoding="UTF-8" standalone="no"?>
<!-- Uploaded to: SVG Repo, www.svgrepo.com, Generator: SVG Repo Mixer Tools -->

<svg
   width="16"
   height="16"
   viewBox="0 0 16 16"
   fill="none"
   fill-opacity="context-fill-opacity"
   version="1.1"
   id="svg1"
   xmlns="http://www.w3.org/2000/svg"
   xmlns:svg="http://www.w3.org/2000/svg">
  <defs
     id="defs1" />
  <g
     id="Interface / Credit_Card_01"
     transform="matrix(0.6673248,0,0,0.64329124,0.00481423,0.65517367)">
    <path
       id="Vector"
       d="m 1.5060515,10.286904 v 5.573613 c 0,1.300573 0,1.950569 0.2538762,2.447298 0.2233047,0.436931 0.5793764,0.792579 1.0176586,1.015167 0.4977598,0.252894 1.149704,0.252894 2.4516585,0.252894 H 18.746074 c 1.301934,0 1.952958,0 2.450716,-0.252894 0.438249,-0.222588 0.795556,-0.578236 1.018812,-1.015167 0.253655,-0.496265 0.253655,-1.14533 0.253655,-2.443349 v -5.577562 m -20.9632055,0 V 7.96466 m 0,2.322244 H 22.469257 M 1.5060515,7.96466 V 7.0359951 c 0,-1.3005838 0,-1.9513575 0.2538762,-2.4481086 C 1.9832324,4.1509216 2.3393041,3.7959204 2.7775863,3.5732868 3.2758352,3.3201741 3.9285712,3.3201741 5.2330765,3.3201741 H 18.742697 c 1.304497,0 1.955869,0 2.454093,0.2531127 0.438249,0.2226336 0.795556,0.5776348 1.018812,1.0145997 0.253655,0.4962633 0.253655,1.1462475 0.253655,2.4442884 V 7.96466 m -20.9632055,0 H 22.469257 M 6.1645416,14.931391 H 10.823032 M 22.469257,10.286904 V 7.96466"
       stroke="context-fill"
       stroke-width="2.32575"
       stroke-linecap="round"
       stroke-linejoin="round" />
  </g>
</svg>
