<?xml version="1.0" encoding="UTF-8" standalone="no"?>
<!-- Created with Inkscape (http://www.inkscape.org/) -->

<svg
   width="16mm"
   height="16mm"
   viewBox="0 0 16 16"
   version="1.1"
   id="svg1"
   xml:space="preserve"
   xmlns="http://www.w3.org/2000/svg"
   xmlns:svg="http://www.w3.org/2000/svg"><defs
     id="defs1" /><g
     id="layer1"><path
       d="m 8.3292296,1.4783623 c -0.014452,0.00209 -0.067073,0.00929 -0.1186662,0.015471 C 8.0093441,1.5185983 7.6925526,1.5928963 7.3933028,1.684734 L 7.2766985,1.7208497 7.2085934,1.6991776 C 7.1332642,1.6764771 7.0249157,1.6723484 6.935141,1.6888558 6.7473377,1.7239426 6.5698501,1.8911069 6.5192889,2.0820062 c -0.00826,0.030958 -0.034054,0.096998 -0.057787,0.1485916 -0.053657,0.1135102 -0.1062845,0.2693264 -0.1310501,0.3869609 -0.014452,0.068102 -0.018584,0.1310521 -0.017546,0.2786116 0,0.1712938 0.00309,0.2012196 0.02683,0.289962 0.035083,0.1279562 0.090807,0.2579746 0.1578797,0.365291 l 0.053657,0.084615 -0.077391,0.076361 C 6.245833,3.9394156 6.0126243,4.3108968 5.8753823,4.6658697 5.8506166,4.7277857 5.8268831,4.7896958 5.8217251,4.8031119 5.8103674,4.8299412 5.8175964,4.8299412 5.6256639,4.7927901 5.5049336,4.7690536 5.3738815,4.7319099 5.2149697,4.6741219 5.122099,4.6400711 5.1086852,4.6328495 5.1128131,4.6142703 c 0.023734,-0.098031 0.038179,-0.1929629 0.038179,-0.2486866 0,-0.1537511 -0.056753,-0.4230753 -0.1331142,-0.6294551 C 4.9776354,3.6267487 4.9766033,3.6236529 4.9951773,3.6030152 5.0993999,3.4884744 5.0622505,3.2913835 4.9219125,3.2222459 4.7939583,3.158273 4.6484604,3.2057384 4.5803573,3.3347225 c -0.030957,0.057787 -0.029926,0.1599442 0.00103,0.2177292 0.026829,0.051594 0.094935,0.1124766 0.1423999,0.127954 l 0.035085,0.012379 v 0.084615 c 0,0.094935 -0.022702,0.2466222 -0.046436,0.3013137 -0.023734,0.057787 -0.059849,0.086678 -0.1083484,0.086678 -0.084615,0 -0.1547839,-0.058816 -0.3993445,-0.3322694 C 4.0943227,3.7092942 3.9942302,3.6009456 3.9808141,3.5926896 3.9632707,3.5813319 3.9550208,3.5627676 3.9498561,3.5276809 3.9395343,3.4513195 3.8879402,3.373929 3.8218999,3.3367816 3.6464781,3.2387511 3.4287495,3.3811543 3.4514508,3.5792758 c 0.015472,0.1258904 0.1227947,0.224953 0.2455908,0.224953 0.028894,0 0.044372,0.010322 0.091839,0.058816 0.030958,0.031987 0.1475595,0.1258919 0.2579724,0.2084434 0.110414,0.081518 0.2249543,0.1733573 0.253846,0.202251 0.1258921,0.1289863 0.1145403,0.2280488 -0.031988,0.2940899 -0.068105,0.030958 -0.1733595,0.059852 -0.2517823,0.069137 -0.048501,0.00514 -0.051594,0.0041 -0.066037,-0.023736 C 3.8982619,4.5121029 3.7682465,4.4636061 3.6547378,4.5007534 3.5463893,4.5368681 3.4669321,4.6606968 3.4844739,4.7659496 c 0.035087,0.2084434 0.2734523,0.2930577 0.4220462,0.1496261 0.024765,-0.023736 0.046437,-0.048501 0.048501,-0.054694 0.00313,-0.00826 0.040243,-0.0041 0.1217628,0.012379 0.3271114,0.066037 0.6542208,0.055723 0.8151965,-0.025801 0.022701,-0.012379 0.04334,-0.021672 0.045404,-0.021672 0.00208,0 0.051595,0.054687 0.1083483,0.1217625 0.1331142,0.1568476 0.3425892,0.3601308 0.4602255,0.4457781 0.049532,0.037151 0.099061,0.074295 0.1093805,0.082552 0.018584,0.015472 0.018584,0.0196 -0.00619,0.1547841 -0.1000884,0.5561898 -0.1093763,1.2857397 -0.019598,1.7129431 0.1145404,0.5510323 0.4591935,1.1051586 0.9648203,1.5519681 0.3848966,0.3415577 0.6985922,0.5427765 1.3569409,0.8750482 0.6511248,0.3271092 0.8894934,0.4684782 1.1887432,0.7016862 0.138272,0.10835 0.1351781,0.104222 0.1042206,0.144465 -0.072233,0.09597 -0.2301128,0.395217 -0.3085357,0.58302 -0.024766,0.06088 -0.039213,0.08358 -0.049532,0.08049 -0.042307,-0.01651 -0.1816135,-0.02683 -0.2590063,-0.02064 -0.1785175,0.01342 -0.4540336,0.08771 -0.636679,0.170261 -0.068103,0.03096 -0.068103,0.03096 -0.089773,0.01136 -0.054692,-0.05159 -0.1743915,-0.06913 -0.2517825,-0.03612 -0.091839,0.03818 -0.1506578,0.127954 -0.1506578,0.231144 0,0.143434 0.1052545,0.247654 0.2486864,0.247654 0.1083505,-0.0011 0.2022512,-0.0681 0.2363047,-0.169231 l 0.017546,-0.05056 0.1403381,0.0073 c 0.2012191,0.0093 0.2992497,0.04024 0.3291733,0.10319 0.039213,0.07946 -0.020638,0.16407 -0.3250454,0.465383 -0.2321767,0.230113 -0.2486865,0.243527 -0.2971859,0.253847 -0.1021585,0.0227 -0.1692316,0.08874 -0.1919333,0.188837 -0.023733,0.106284 0.024766,0.214633 0.1217644,0.271386 0.042308,0.02476 0.06088,0.0289 0.1217642,0.0289 0.140336,-0.0011 0.2352707,-0.08874 0.2497164,-0.230113 0.00619,-0.05263 0.012376,-0.06501 0.069137,-0.13105 0.035085,-0.03921 0.1207323,-0.15788 0.1919333,-0.263133 0.1970912,-0.292025 0.2930579,-0.375611 0.3848966,-0.336397 0.068105,0.02787 0.1289861,0.146528 0.1671656,0.32092 0.017546,0.07842 0.017546,0.08255 0,0.09287 -0.1176343,0.06914 -0.1620056,0.207412 -0.1042205,0.330207 0.044371,0.097 0.1248602,0.143432 0.2342408,0.137243 0.2507504,-0.01342 0.3250453,-0.335365 0.1093803,-0.46745 -0.015469,-0.0093 -0.016507,-0.01754 -0.00309,-0.09287 0.045404,-0.256943 0.046436,-0.514917 0.00103,-0.693434 l -0.025798,-0.101125 0.022701,-0.01858 c 0.1042227,-0.08152 0.4705434,-0.288932 0.5757979,-0.325047 0.029923,-0.01136 0.030955,-0.01032 0.071201,0.06295 0.061913,0.112477 0.1248585,0.268292 0.1351781,0.334334 0.00619,0.03303 0.014451,0.126924 0.020636,0.209474 0.054687,0.819325 -0.3209196,1.449812 -1.0762649,1.805815 -0.2971858,0.139306 -0.7491554,0.263133 -1.059757,0.28893 C 7.38402,13.94266 6.9310185,13.779618 6.5151643,13.433933 6.11479,13.101663 5.7773607,12.583653 5.6535345,12.111045 c -0.039213,-0.148593 -0.051595,-0.24043 -0.051595,-0.37664 0,-0.14137 0.014452,-0.229081 0.051595,-0.325048 0.088743,-0.221857 0.3044077,-0.407597 0.5499983,-0.473639 0.1166044,-0.03096 0.2528144,-0.0423 0.5242025,-0.0423 0.2125711,0 0.2579745,-0.0031 0.3281414,-0.02063 0.1465228,-0.03718 0.2466175,-0.129019 0.2982107,-0.273483 C 7.4789476,10.246386 7.3489176,9.9688091 7.0135622,9.8769698 6.9289473,9.8542693 6.7225683,9.844983 6.6152518,9.8604625 6.2128135,9.9182495 5.8227571,10.122563 5.4822318,10.454832 5.2160036,10.71487 5.0684417,10.9326 4.9714451,11.211212 4.8641286,11.521811 4.8538088,11.9129 4.9446151,12.28438 c 0.1300182,0.533491 0.4364919,1.076267 0.8616318,1.527204 0.6841464,0.72542 1.768665,1.02983 2.7778587,0.781143 0.6181033,-0.151688 1.1804854,-0.49118 1.5591924,-0.939022 0.441649,-0.524202 0.682079,-1.253753 0.709942,-2.15666 0.0082,-0.251782 -0.01445,-0.443713 -0.08462,-0.722325 -0.0052,-0.02167 0.0093,-0.03303 0.173358,-0.130018 0.209475,-0.12486 0.461257,-0.267261 0.471575,-0.267261 0.0032,0 0.01651,0.01754 0.02786,0.03921 0.08152,0.142402 0.350845,0.356004 0.622233,0.491181 0.07223,0.03715 0.0939,0.05263 0.0939,0.06914 0,0.01136 0.0052,0.0423 0.01238,0.06913 0.01547,0.06191 0.09906,0.149624 0.157879,0.166136 0.143434,0.03921 0.280674,-0.03405 0.320919,-0.172328 0.03508,-0.118666 -0.02889,-0.247654 -0.145498,-0.296154 -0.05263,-0.0227 -0.14756,-0.0227 -0.189867,0 -0.03199,0.01651 -0.03508,0.01549 -0.05469,-0.0021 -0.04953,-0.04437 -0.148592,-0.176453 -0.184709,-0.246622 -0.05057,-0.09803 -0.05366,-0.148593 -0.01032,-0.188836 0.06088,-0.05675 0.167165,-0.06398 0.478796,-0.03199 0.109384,0.01136 0.246623,0.0227 0.305442,0.02581 0.09597,0.0041 0.109381,0.0072 0.138275,0.03199 0.07946,0.06708 0.177484,0.07739 0.27242,0.02889 0.106284,-0.05468 0.153751,-0.159943 0.126922,-0.279643 -0.01032,-0.04644 -0.0227,-0.0681 -0.06501,-0.1114442 -0.03612,-0.036116 -0.06707,-0.058816 -0.09493,-0.066045 -0.08874,-0.023736 -0.175422,-0.00825 -0.237334,0.043337 -0.03612,0.029932 -0.04025,0.029932 -0.142403,0.028898 -0.05779,-0.00105 -0.190901,0.00824 -0.296153,0.020635 -0.308536,0.036118 -0.438556,0.028898 -0.502533,-0.025796 -0.04231,-0.037143 -0.04127,-0.1207305 0.0032,-0.2125693 0.04747,-0.099063 0.149626,-0.2394007 0.169232,-0.2311447 0.03199,0.014451 0.143432,0.016507 0.180581,0.0041 0.04953,-0.016507 0.113509,-0.074295 0.1424,-0.1279562 0.02993,-0.057787 0.02993,-0.159942 -0.0011,-0.2187614 -0.07533,-0.145496 -0.261067,-0.1847093 -0.3818,-0.080486 -0.06398,0.053659 -0.08874,0.1083486 -0.08978,0.1929629 l -0.0011,0.070166 -0.10835,0.067073 c -0.265197,0.1661358 -0.427204,0.3198877 -0.551031,0.5231706 -0.0093,0.015474 -0.02167,0.015474 -0.154783,-0.00719 -0.254879,-0.044372 -0.509757,-0.057787 -0.670733,-0.037143 -0.03922,0.00514 -0.07327,0.00723 -0.07533,0.00514 -0.0021,-0.00213 -0.0351,-0.085689 -0.07431,-0.1878484 C 10.128861,8.9327439 9.744996,8.1846211 9.4395542,7.7935344 9.3415236,7.6676417 9.0567216,7.3725205 8.7729517,7.1031963 8.2435891,6.6016974 8.0722956,6.4169876 7.8659164,6.1311537 l -0.1031905,-0.144466 0.048499,-0.013415 c 0.2734521,-0.07636 0.5830197,-0.210507 0.7481234,-0.3250471 0.016507,-0.010322 0.029926,-0.018587 0.031989,-0.016507 0.00206,0.00209 0.016507,0.029922 0.033019,0.06088 0.087711,0.1651036 0.3797367,0.369419 0.7243898,0.5056268 0.082553,0.033022 0.084615,0.034051 0.090807,0.073266 0.00826,0.051594 0.05366,0.1227961 0.098031,0.1558163 0.1052525,0.077393 0.2455905,0.063981 0.3322695,-0.033023 0.10938,-0.1217639 0.084614,-0.2961535 -0.054692,-0.3797364 -0.048498,-0.028894 -0.065009,-0.033023 -0.1258903,-0.033023 -0.050564,0 -0.08255,0.00619 -0.1124764,0.020636 -0.051594,0.026831 -0.056754,0.024766 -0.166135,-0.091837 C 9.2651643,5.7555408 9.2249208,5.6513202 9.286834,5.589405 9.344619,5.531618 9.3910544,5.525424 9.7996847,5.518203 10.14537,5.510973 10.172199,5.512013 10.191805,5.528525 c 0.05469,0.047466 0.156848,0.063981 0.233209,0.036116 0.162006,-0.057787 0.217729,-0.2662307 0.105252,-0.3972805 -0.04747,-0.055723 -0.115572,-0.086678 -0.187805,-0.086678 -0.07017,0.00104 -0.119701,0.020636 -0.172325,0.068102 -0.03818,0.033022 -0.0454,0.035087 -0.133115,0.041272 -0.050566,0.00313 -0.1950289,0.027858 -0.3198871,0.054694 -0.3498131,0.074295 -0.4726073,0.068102 -0.5169788,-0.024765 -0.029926,-0.063981 0.00103,-0.1733595 0.095967,-0.3322694 l 0.046433,-0.077393 h 0.083584 c 0.090807,0 0.1300182,-0.014451 0.1857415,-0.066045 0.067071,-0.061916 0.094933,-0.1682004 0.065009,-0.2538469 -0.033022,-0.096997 -0.093903,-0.1516875 -0.1950292,-0.1712938 -0.048499,-0.010322 -0.066041,-0.00928 -0.1155724,0.00619 -0.1279542,0.040244 -0.2063771,0.1785198 -0.1712936,0.3002823 0.00928,0.030958 0.00723,0.034051 -0.049532,0.074295 C 8.913287,4.8639711 8.70175,5.0899556 8.6181672,5.2653774 l -0.030957,0.062945 -0.1155724,0.00514 C 8.1476222,5.3479146 7.4056906,5.3045705 7.2643206,5.2632981 7.2426508,5.2571124 7.1920895,5.1363762 7.1570041,5.0053242 c -0.019602,-0.076359 -0.028891,-0.13724 -0.031988,-0.2373349 -0.00619,-0.1516882 0,-0.2032832 0.054689,-0.4292677 l 0.037149,-0.1527204 0.037148,0.0196 c 0.02167,0.010322 0.073265,0.031987 0.1155724,0.047465 0.2528143,0.090807 0.5324563,0.095965 0.8017805,0.014451 C 8.2745456,4.2365592 8.4964025,4.1230512 8.602687,4.0466921 8.7275472,3.9579491 8.881299,3.8124509 8.9101926,3.7577625 8.9225686,3.7329975 8.9483726,3.6844965 8.9669456,3.6504439 9.0175094,3.555511 9.0340191,3.4760546 9.0278268,3.3656417 9.024734,3.3140475 9.0144128,3.2500694 9.0040933,3.2222079 8.988624,3.1768068 8.9875858,3.1582276 8.9989436,3.0416268 9.050537,2.4761483 9.0391868,2.064424 8.9638583,1.8116095 8.8885294,1.5608593 8.7801809,1.4844987 8.494347,1.4772764 8.417986,1.4751864 8.3436911,1.4751864 8.3292433,1.4783164 Z"
       id="path1"
       style="fill:context-fill;stroke:none;stroke-width:0.0010319" /><g
       style="fill:none"
       id="g1"
       transform="matrix(0.56664583,0,0,0.56664583,0.48362662,2.0520906)"><path
         d="m 22.375414,19.452436 c 1.1046,0 2,-0.8954 2,-2 v -3.6745 c 0,-0.4892 0,-0.7338 0.0553,-0.964 0.049,-0.204 0.1298,-0.3991 0.2394,-0.5781 0.1237,-0.2018 0.2967,-0.3748 0.6426,-0.7207 l 1.0627,-1.0627 -1.0627,-1.0626997 c -0.3459,-0.3459 -0.5189,-0.5189 -0.6426,-0.7207 -0.1096,-0.179 -0.1904,-0.3740601 -0.2394,-0.5781401 -0.0553,-0.23017 -0.0553,-0.47476 -0.0553,-0.96394 v -3.67452 c 0,-1.10457 -0.8954,-2 -2,-2"
         stroke="context-fill"
         stroke-width="2"
         stroke-linecap="round"
         stroke-linejoin="round"
         id="path1-6" /><path
         d="m 4.1533681,19.555563 c -1.10457,0 -1.9999996,-0.8954 -1.9999996,-2 v -3.6745 c 0,-0.4892 0,-0.7338 -0.05526,-0.964 -0.04899,-0.204 -0.1298,-0.3991 -0.23946,-0.5781 -0.12368,-0.2018 -0.29665,-0.3748 -0.64254,-0.7207 L 0.15336893,10.555563 1.2161085,9.4928624 c 0.3459,-0.3458996 0.51886,-0.5188996 0.64254,-0.7206996 0.10966,-0.179 0.19047,-0.3740601 0.23946,-0.5781401 0.05526,-0.23017 0.05526,-0.47476 0.05526,-0.96394 v -3.67452 c 0,-1.10457 0.8954296,-2 1.9999996,-2"
         stroke="context-fill"
         stroke-width="2"
         stroke-linecap="round"
         stroke-linejoin="round"
         id="path2" /></g></g></svg>
