<?xml version="1.0" encoding="UTF-8" standalone="no"?>
<!-- Uploaded to: SVG Repo, www.svgrepo.com, Generator: SVG Repo Mixer Tools -->

<svg
   fill="context-fill"
   width="16"
   height="16"
   viewBox="0 0 0.7 0.7"
   data-name="Layer 2"
   id="Layer_2"
   version="1.1"
   xmlns="http://www.w3.org/2000/svg"
   xmlns:svg="http://www.w3.org/2000/svg">
  <defs
     id="defs1" />
  <path
     d="m 0.36584958,0.67060638 c -0.0183214,-7.56e-6 -0.036612,-0.001501 -0.0546919,-0.004468 C 0.12701605,0.63592354 0.00214561,0.46227037 0.03211678,0.2780885 0.04843716,0.17605537 0.11080183,0.08720801 0.20121552,0.03718323 c 0.0153735,-0.0085898 0.0343439,-0.0074268 0.0485531,0.0029765 0.014531,0.0099425 0.0210896,0.02732609 0.0178664,0.04463537 l -5.6588e-4,0.0024292 c -0.0266771,0.14150675 0.0540369,0.28127407 0.1899338,0.32889614 v 0 c 0.0506435,0.0175756 0.10512569,0.0209848 0.1575651,0.00986 0.036844,-0.007231 0.0660356,0.0308499 0.0494835,0.0645514 -0.0584658,0.11053887 -0.1731544,0.17979563 -0.29820196,0.18007454 z M 0.19984447,0.10896335 c -0.12126409,0.0891337 -0.13769965,0.25859868 -0.0366323,0.399372 0.17009995,0.17037169 0.34776783,0.0960092 0.42914441,-0.0144958 -0.0607408,0.0165303 -0.11162771,0.004044 -0.16935046,-0.015781 C 0.28112572,0.42116287 0.16947009,0.27376154 0.19984447,0.10896335 Z"
     id="path1"
     style="stroke-width:4.94047;stroke-dasharray:none" />
</svg>
