<?xml version="1.0" encoding="UTF-8" standalone="no"?>
<!-- Uploaded to: SVG Repo, www.svgrepo.com, Generator: SVG Repo Mixer Tools -->

<svg
   width="16"
   height="16"
   viewBox="0 0 10.24 10.24"
   version="1.1"
   id="svg2"
   xmlns="http://www.w3.org/2000/svg"
   xmlns:svg="http://www.w3.org/2000/svg">
  <defs
     id="defs2" />
  <path
     fill="context-fill"
     d="M 4.6536531,7.341664 4.9444251,6.723756 A 11.564215,11.564215 0 0 1 4.1296391,5.821164 q 0.320121,-0.431733 0.59654,-0.886083 a 10.952959,10.952959 0 0 0 1.17748,-2.689655 h 1.043917 v -0.64504 h -2.90268 V 0.47156599 H 3.3998571 V 1.600386 h -3.06394 v 0.64504 h 1.204813 a 10.988315,10.988315 0 0 0 1.440213,3.103428 C 3.1182361,5.17941 3.2572221,4.997468 3.3955021,4.803976 a 10.334285,10.334285 0 0 1 -1.182317,-2.55855 h 3.018323 c -0.599222,1.96596 -1.704236,3.410809 -2.552746,4.295945 -0.987576,1.030189 -1.853522,1.549305 -1.862149,1.554425 l 0.03268,0.05519 0.131669,0.222317 0.164082,0.277649 c 0.03776,-0.02229 0.936799,-0.558947 1.983276,-1.646464 q 0.310022,-0.322157 0.593436,-0.663807 a 12.25854,12.25854 0 0 0 0.931902,1.000981 z"
     class="ci-primary"
     id="path1"
     style="stroke-width:0.0201575" />
  <path
     fill="context-fill"
     d="m 6.7403971,4.180545 -0.115341,0.252292 -2.391103,5.2305468 h 0.709242 l 0.73718,-1.6125988 h 2.856922 l 0.73718,1.6125988 h 0.709241 L 7.4772751,4.180545 Z m -0.115341,3.2252 h -0.649797 l 0.649797,-1.421426 0.48378,-1.058269 1.133577,2.479695 z"
     class="ci-primary"
     id="path2"
     style="stroke-width:0.0201575" />
</svg>
