<?xml version="1.0" encoding="UTF-8" standalone="no"?>
<!-- Uploaded to: SVG Repo, www.svgrepo.com, Generator: SVG Repo Mixer Tools -->

<svg
   width="16"
   height="16"
   viewBox="0 0 0.48 0.48"
   fill="#00000000"
   version="1.1"
   id="svg1"
   xmlns="http://www.w3.org/2000/svg"
   xmlns:svg="http://www.w3.org/2000/svg">
  <defs
     id="defs1" />
  <path
     d="m 0.37312395,0.11281239 v 0.22123014 c 0,0.0364422 0,0.0546612 -0.007093,0.0685813 -0.006238,0.0122439 -0.016191,0.0221968 -0.0284346,0.0284346 -0.0139201,0.007093 -0.0321391,0.007093 -0.0685814,0.007093 h -0.0520541 c -0.0364414,0 -0.054662,0 -0.0685807,-0.007093 -0.0122439,-0.006238 -0.0221974,-0.016191 -0.0284357,-0.0284346 -0.007091,-0.0139201 -0.007091,-0.0321391 -0.007091,-0.0685813 V 0.11281239 m -0.04337847,0 h 0.3470276 m -0.0867568,0 -0.00587,-0.0176102 c -0.005688,-0.01706552 -0.008534,-0.02559821 -0.0138087,-0.03190678 -0.004659,-0.0055712 -0.0106404,-0.0098824 -0.0173991,-0.01254079 -0.007654,-0.00301 -0.0166464,-0.00301 -0.0346355,-0.00301 h -0.0300873 c -0.0179892,0 -0.0269815,0 -0.0346354,0.00301 -0.006757,0.0026584 -0.0127405,0.0069695 -0.0173994,0.01254079 -0.005276,0.0063087 -0.00812,0.01484126 -0.0138084,0.03190678 l -0.00587,0.0176102"
     stroke="#000000"
     stroke-width="0.0433783"
     stroke-linecap="round"
     stroke-linejoin="round"
     id="path1"
     style="fill:none;stroke:context-fill;stroke-opacity:1" />
</svg>
